name C:\Users\r0593348\3dpredictsim\Results\Batchsim_tmt_linear\Pog_s1_tmt_bCst_d00_k2000_ig24_pas.mot
datacolumns 128
datarows 4
range 1.10401240 1.13713277
endheader
time	pelvis_tilt	pelvis_list	pelvis_rotation	pelvis_tx	pelvis_ty	pelvis_tz	hip_flexion_l	hip_adduction_l	hip_rotation_l	hip_flexion_r	hip_adduction_r	hip_rotation_r	knee_angle_l	knee_angle_r	ankle_angle_l	ankle_angle_r	subtalar_angle_l	subtalar_angle_r	tmt_angle_l	tmt_angle_r	mtp_angle_l	mtp_angle_r	lumbar_extension	lumbar_bending	lumbar_rotation	arm_flex_l	arm_add_l	arm_rot_l	arm_flex_r	arm_add_r	arm_rot_r	elbow_flex_l	elbow_flex_r	pro_sup_l	pro_sup_r	glut_med1_l/activation	glut_med2_l/activation	glut_med3_l/activation	glut_min1_l/activation	glut_min2_l/activation	glut_min3_l/activation	semimem_l/activation	semiten_l/activation	bifemlh_l/activation	bifemsh_l/activation	sar_l/activation	add_long_l/activation	add_brev_l/activation	add_mag1_l/activation	add_mag2_l/activation	add_mag3_l/activation	tfl_l/activation	pect_l/activation	grac_l/activation	glut_max1_l/activation	glut_max2_l/activation	glut_max3_l/activation	iliacus_l/activation	psoas_l/activation	quad_fem_l/activation	gem_l/activation	peri_l/activation	rect_fem_l/activation	vas_med_l/activation	vas_int_l/activation	vas_lat_l/activation	med_gas_l/activation	lat_gas_l/activation	soleus_l/activation	tib_post_l/activation	flex_dig_l/activation	flex_hal_l/activation	tib_ant_l/activation	per_brev_l/activation	per_long_l/activation	per_tert_l/activation	ext_dig_l/activation	ext_hal_l/activation	ercspn_l/activation	intobl_l/activation	extobl_l/activation	glut_med1_r/activation	glut_med2_r/activation	glut_med3_r/activation	glut_min1_r/activation	glut_min2_r/activation	glut_min3_r/activation	semimem_r/activation	semiten_r/activation	bifemlh_r/activation	bifemsh_r/activation	sar_r/activation	add_long_r/activation	add_brev_r/activation	add_mag1_r/activation	add_mag2_r/activation	add_mag3_r/activation	tfl_r/activation	pect_r/activation	grac_r/activation	glut_max1_r/activation	glut_max2_r/activation	glut_max3_r/activation	iliacus_r/activation	psoas_r/activation	quad_fem_r/activation	gem_r/activation	peri_r/activation	rect_fem_r/activation	vas_med_r/activation	vas_int_r/activation	vas_lat_r/activation	med_gas_r/activation	lat_gas_r/activation	soleus_r/activation	tib_post_r/activation	flex_dig_r/activation	flex_hal_r/activation	tib_ant_r/activation	per_brev_r/activation	per_long_r/activation	per_tert_r/activation	ext_dig_r/activation	ext_hal_r/activation	ercspn_r/activation	intobl_r/activation	extobl_r/activation	
          1.10401240	         -2.92854306	         -2.54255101	          5.92092226	          1.38001550	          0.85550634	         -0.00352183	        -18.86154969	         -2.05707746	          7.39545942	         31.79492793	          3.25789215	         -2.63155534	         -5.58231518	        -13.55814850	          1.71997586	          7.33887432	          9.03317853	         -4.75339047	          0.52477326	          0.01583661	         21.64859889	         -0.12950879	         -2.23991172	          0.88674593	         -2.13046944	          9.50395087	        -13.45526490	         18.62557988	         -9.67213453	        -13.56578040	          7.49757093	         37.34232898	         12.73595759	         86.51662706	         86.51662706	          0.25839532	          0.09853978	          0.07537749	          0.31691207	          0.20330557	          0.10809987	          0.05000738	          0.05000148	          0.05000108	          0.07986857	          0.11632707	          0.05000503	          0.05000168	          0.05000191	          0.05000510	          0.05000471	          0.34126635	          0.05000863	          0.05000416	          0.05006941	          0.05003350	          0.05001243	          0.46867869	          0.72280092	          0.05000295	          0.05000875	          0.05001188	          0.27070162	          0.06173373	          0.05007607	          0.05005511	          0.34553881	          0.46690423	          0.31782198	          0.28862620	          0.30718644	          0.42162765	          0.05000020	          0.06097690	          0.16528572	          0.05000116	          0.05000033	          0.05000102	          0.05000010	          0.05000015	          0.05000018	          0.05000600	          0.05000125	          0.05076089	          0.05000100	          0.05000128	          0.05000498	          0.08931208	          0.05920264	          0.34153063	          0.05000321	          0.05000621	          0.10908694	          0.15220456	          0.20002620	          0.16247839	          0.13284967	          0.05920059	          0.05065752	          0.06002610	          0.05846369	          0.07009654	          0.11674790	          0.05000557	          0.05209701	          0.14550348	          0.05000509	          0.05000272	          0.05000310	          0.10474770	          0.10612662	          0.09318847	          0.05000160	          0.05000256	          0.05919893	          0.05000048	          0.05526642	          0.05918917	          0.51688468	          0.39866193	          0.24161924	          0.33080225	          0.55354650	          0.32343091	          0.07901976	          0.10276873	          0.10500541	
          1.11505253	         -2.92181369	         -2.63705602	          6.22319417	          1.39668289	          0.85437871	         -0.00331794	        -18.74146654	         -2.37913324	          7.20178493	         31.25662663	          3.62678140	         -2.44632080	         -7.55970001	        -13.55047525	          0.92620673	          6.79380930	         10.04796457	         -5.24949060	          0.50121817	          0.02147099	         22.76857949	         -0.11148027	         -2.02904783	          1.10883602	         -2.22085911	          9.38430895	        -13.46722640	         18.85494922	        -10.85577783	        -13.55484986	          7.38901776	         38.58183080	         12.65588872	         86.51662706	         86.51662706	          0.21823964	          0.08322616	          0.06366362	          0.26766264	          0.17171084	          0.09130070	          0.05001144	          0.05000200	          0.05000230	          0.06745661	          0.09825043	          0.12855935	          0.07332310	          0.05061962	          0.05003385	          0.05001130	          0.28823289	          0.09624718	          0.05002222	          0.05001133	          0.05000746	          0.05000662	          0.39584336	          0.66700092	          0.05000280	          0.05006374	          0.05920038	          0.22863321	          0.05826642	          0.19308789	          0.17753928	          0.29183974	          0.39434433	          0.26843065	          0.26686719	          0.25945890	          0.35617645	          0.05000019	          0.05150149	          0.16957771	          0.05000079	          0.05000024	          0.05000087	          0.05000122	          0.06668321	          0.05000032	          0.07422174	          0.05919973	          0.05000103	          0.05920281	          0.05920055	          0.05000684	          0.07543298	          0.05000358	          0.30048283	          0.05000214	          0.05000563	          0.09213605	          0.12855207	          0.21314685	          0.19066870	          0.13708933	          0.05000194	          0.05001247	          0.05069946	          0.05920014	          0.05920449	          0.13813266	          0.05000151	          0.05000243	          0.49229002	          0.11796320	          0.09091751	          0.06796333	          0.16996088	          0.17651076	          0.15497981	          0.05000005	          0.05000012	          0.05000001	          0.05000049	          0.05919925	          0.05000684	          0.57807963	          0.33670886	          0.22479312	          0.49613830	          0.58960134	          0.28730108	          0.06673965	          0.08679783	          0.08868690	
          1.12609265	         -2.91075996	         -2.72844029	          6.49763209	          1.41365439	          0.85330079	         -0.00311866	        -18.52943948	         -2.68977006	          6.99757316	         30.62068854	          3.94070950	         -2.19687908	         -9.69499862	        -14.13919528	         -0.04413332	          6.12316055	         11.02251921	         -5.76680373	          0.46852592	         -0.01580564	         23.74215821	         -0.14898793	         -1.79521589	          1.33359411	         -2.29985328	          9.16446121	        -13.47824855	         18.99870677	        -12.05479659	        -13.54486219	          7.31651342	         39.79220620	         12.63836120	         86.51662706	         86.51662706	          0.30532384	          0.07029237	          0.05377024	          0.22606749	          0.14502615	          0.07711218	          0.05001111	          0.05000283	          0.05000266	          0.05697366	          0.08298306	          0.15269383	          0.10194347	          0.05920354	          0.05919526	          0.05914502	          0.24344682	          0.09299226	          0.05052835	          0.05006977	          0.05005942	          0.05022837	          0.33432737	          0.62701019	          0.05918920	          0.05000944	          0.05000096	          0.19310217	          0.13116873	          0.16308275	          0.14995092	          0.24648586	          0.33306060	          0.22671471	          0.22539497	          0.21913865	          0.30082557	          0.05000015	          0.06183926	          0.19515961	          0.05000058	          0.05000020	          0.05000072	          0.05676955	          0.05632036	          0.05000069	          0.25981300	          0.05000065	          0.32699160	          0.05000279	          0.05000132	          0.22916500	          0.08536309	          0.05000236	          0.25378615	          0.05000096	          0.05000374	          0.08061113	          0.20577768	          0.18003585	          0.17753226	          0.16755943	          0.05000240	          0.05921708	          0.10835105	          0.05000105	          0.05000463	          0.16168422	          0.05229123	          0.05000343	          0.41578518	          0.09963167	          0.17147300	          0.05740159	          0.14354865	          0.14908095	          0.13089572	          0.06080884	          0.06519783	          0.06263957	          0.05920028	          0.05000121	          0.05000180	          0.48824216	          0.40158081	          0.22521469	          0.41903690	          0.57940662	          0.24265277	          0.05636874	          0.07989830	          0.07490438	
          1.13713277	         -2.89723626	         -2.81648010	          6.73920918	          1.43076409	          0.85227707	         -0.00289997	        -18.21367402	         -2.98699134	          6.78792873	         29.87413009	          4.21591083	         -1.93260218	        -11.98334300	        -14.80402204	         -1.19426827	          5.67718248	         11.93785521	         -6.27219885	          0.43258967	         -0.01079169	         24.51106378	         -0.17093223	         -1.55482264	          1.55773303	         -2.36864361	          8.86986065	        -13.49243664	         19.06937480	        -13.22494291	        -13.53487832	          7.29730220	         40.96023472	         12.65106696	         86.51662706	         86.51662706	          0.25787769	          0.05936860	          0.05000029	          0.32406236	          0.12248849	          0.06512873	          0.05001691	          0.05000096	          0.05000083	          0.05000123	          0.07008976	          0.14888357	          0.08610168	          0.05000458	          0.05000335	          0.05000223	          0.28025779	          0.07854709	          0.05000221	          0.05000516	          0.05000322	          0.05000189	          0.28237109	          0.57875214	          0.05000037	          0.05000215	          0.05000143	          0.16309304	          0.11079081	          0.13774316	          0.13774283	          0.20818028	          0.28130075	          0.19148169	          0.19036741	          0.18508383	          0.25407591	          0.05000016	          0.11001180	          0.18372407	          0.05000105	          0.05000057	          0.05000086	          0.07332857	          0.05000006	          0.05000020	          0.31585130	          0.29805376	          0.39925722	          0.21813863	          0.22790866	          0.19355566	          0.07209767	          0.09004423	          0.21434615	          0.08240272	          0.05003422	          0.06808386	          0.17379860	          0.15205774	          0.14994414	          0.17867576	          0.05000214	          0.05001652	          0.09151431	          0.23115445	          0.18179271	          0.16813872	          0.05000046	          0.05000060	          0.35116993	          0.08415003	          0.14482653	          0.05000034	          0.12124073	          0.12591358	          0.11055418	          0.05135881	          0.05506579	          0.05290498	          0.05000028	          0.05920190	          0.05919987	          0.62045524	          0.45216554	          0.23679944	          0.66534324	          0.65229877	          0.35766287	          0.08384602	          0.08299341	          0.06326377	
